Coordinates
version=1
nRows=26
nColumns=24
inDegrees=yes

Units are S.I. units (second, meters, Newtons, ...)
Angles are in degrees.

endheader
time	pelvis_tilt	pelvis_list	pelvis_rotation	pelvis_tx	pelvis_ty	pelvis_tz	hip_flexion_r	hip_adduction_r	hip_rotation_r	knee_angle_r	ankle_angle_r	subtalar_angle_r	mtp_angle_r	hip_flexion_l	hip_adduction_l	hip_rotation_l	knee_angle_l	ankle_angle_l	subtalar_angle_l	mtp_angle_l	lumbar_extension	lumbar_bending	lumbar_rotation
      0.97483333	     -4.95837252	      2.55606533	     -1.10263468	     -0.16396799	      1.00023487	      0.32389314	     -9.11429420	      0.08687053	     -0.18044915	    -10.51297327	     10.60115586	     -4.84575552	      4.63875301	     21.07201301	      4.11716881	      0.73825004	      5.02890345	      0.42094843	     -5.25108716	      1.26762183	     -8.87820891	      2.61336426	      7.50312324
      0.97900000	     -4.93795534	      2.64537916	     -1.11945390	     -0.15822683	      0.99948711	      0.32347703	     -9.17863741	     -0.09126248	     -0.49350736	    -11.15843705	     10.85266323	     -4.21168208	      4.97074823	     21.03117829	      4.31035954	      0.85392333	      5.08766729	      0.39921169	     -5.25478477	      1.34750788	     -8.86579856	      2.54354845	      7.42910809
      0.98316667	     -4.97187676	      2.71069139	     -1.13340863	     -0.15245982	      0.99869911	      0.32313061	     -9.20513275	     -0.22449470	     -0.65949548	    -11.75337716	     10.95457090	     -3.88921099	      5.32255986	     21.04959630	      4.47010509	      1.04488251	      5.06340996	      0.36441046	     -5.33794233	      1.42947271	     -8.76938290	      2.46932493	      7.37320327
      0.98733333	     -4.95017473	      2.79763978	     -1.13740815	     -0.14666359	      0.99801259	      0.32276518	     -9.28351569	     -0.38427178	     -0.84473664	    -12.36268593	     11.00690503	     -3.56638852	      5.69759851	     21.01003554	      4.65673234	      1.26575219	      4.96430202	      0.28315075	     -5.47734002	      1.51321479	     -8.75453828	      2.37545707	      7.30783028
      0.99150000	     -4.94342452	      2.89172943	     -1.15519492	     -0.14085989	      0.99732643	      0.32242809	     -9.33889428	     -0.54861967	     -0.95542586	    -12.96675947	     10.89678732	     -3.47732860	     10.42408330	     20.98363016	      4.84451825	      1.54652616	      4.80877867	      0.04851318	     -5.86895644	      2.55886896	     -8.72867630	      2.26723348	      7.22864460
      0.99566667	     -4.92566915	      2.99440602	     -1.11787899	     -0.13502799	      0.99666065	      0.32199806	     -9.37862901	     -0.72581635	     -1.20305303	    -13.65266924	     10.92672529	     -3.09556627	     10.49793539	     20.98761267	      5.06056299	      1.78736606	      4.49373844	     -0.02667056	     -5.96375313	      2.56833343	     -8.69984063	      2.15761240	      7.16401741
      0.99983333	     -4.89703471	      3.12093208	     -1.10231918	     -0.12917696	      0.99603093	      0.32159239	     -9.40513543	     -0.93364881	     -1.41263001	    -14.38468018	     10.92963417	     -2.76717979	     10.62168253	     20.96544272	      5.29426751	      2.07158437	      4.15595497	     -0.25829910	     -6.30738675	      2.58512154	     -8.68455226	      2.02057637	      7.07058698
      1.00400000	     -4.87005619	      3.25076966	     -1.07598883	     -0.12330940	      0.99541192	      0.32117187	     -9.41220310	     -1.14437530	     -1.62469797	    -15.15125022	     10.88887593	     -2.46223511	     10.79466590	     20.94897692	      5.53436153	      2.40194056	      3.75759491	     -0.54289807	     -6.74542323	      2.61224430	     -8.66290198	      1.87480789	      6.97515203
      1.00816667	     -4.85174176	      3.38415476	     -1.04301758	     -0.11743399	      0.99479953	      0.32074615	     -9.39026521	     -1.35907554	     -1.83012366	    -15.95399627	     10.80508816	     -2.17958368	     11.02512262	     20.95138703	      5.77956683	      2.74769791	      3.29443700	     -0.88001780	     -7.24925485	      2.64932817	     -8.62985332	      1.72631784	      6.87242257
      1.01233333	     -4.82386036	      3.52549490	     -1.00043617	     -0.11154820	      0.99421246	      0.32030027	     -9.35773248	     -1.58415496	     -2.04452993	    -16.79511807	     10.68265773	     -1.90214393	     11.31445386	     20.94798645	      6.03715569	      3.11329742	      2.78293719	     -1.26330513	     -7.80909803	      2.69634417	     -8.61211973	      1.57114250	      6.75814411
      1.01650000	     -4.78888435	      3.67744984	     -0.95577944	     -0.10564662	      0.99365935	      0.31985016	     -9.30844164	     -1.82323423	     -2.26410465	    -17.68072628	     10.51392146	     -1.64474377	     11.65891101	     20.94324176	      6.30720950	      3.46873315	      2.22474473	     -1.69063922	     -8.41296302	      2.74925210	     -8.59397083	      1.39579921	      6.64266259
      1.02066667	     -4.75479760	      3.83073320	     -0.90456285	     -0.09974603	      0.99312209	      0.31939357	     -9.23374378	     -2.06517591	     -2.47981671	    -18.60792275	     10.28963516	     -1.40985505	     12.06852708	     20.94746821	      6.58091686	      3.82852259	      1.62178737	     -2.15012609	     -9.05766721	      2.80748254	     -8.57732203	      1.21876199	      6.51987959
      1.02483333	     -4.70203451	      3.97798619	     -0.84410959	     -0.09381574	      0.99264998	      0.31892958	     -9.18237827	     -2.29785673	     -2.67917161	    -19.49809870	      9.83497996	     -1.34367003	     18.03797238	     20.94065665	      6.85305568	      4.17278820	      0.97233412	     -2.63395002	     -9.72163677	      3.64996908	     -8.58641474	      1.04145268	      6.41651051
      1.02900000	     -4.67069467	      4.14774900	     -0.79488376	     -0.08793053	      0.99214019	      0.31846351	     -9.03255268	     -2.56772179	     -2.90254130	    -20.55535605	      9.55648618	     -1.10973777	     18.11667017	     20.97735340	      7.14399318	      4.44552751	      0.26693477	     -3.07538671	    -10.29453895	      3.64253704	     -8.56654783	      0.84504178	      6.28314719
      1.03316667	     -4.63675112	      4.31228672	     -0.73821820	     -0.08204057	      0.99166370	      0.31798719	     -8.86891876	     -2.83227294	     -3.11445693	    -21.62926117	      9.16906060	     -0.91614201	     18.27277499	     21.00571154	      7.43309994	      4.76228366	     -0.44445550	     -3.56555466	    -10.97362902	      3.63554787	     -8.55157553	      0.65308081	      6.15718235
      1.03733333	     -4.60198355	      4.48264347	     -0.68467449	     -0.07615890	      0.99122156	      0.31750691	     -8.67470176	     -3.10839927	     -3.31842996	    -22.74980359	      8.71679823	     -0.73000279	     18.51892864	     21.04014771	      7.72862406	      5.05753926	     -1.18450171	     -4.05563274	    -11.66409739	      3.62618330	     -8.54534582	      0.46166478	      6.03356158
      1.04150000	     -4.54690482	      4.64866843	     -0.63088326	     -0.07029380	      0.99082665	      0.31702707	     -8.47593666	     -3.38346356	     -3.51405257	    -23.90352951	      8.20274416	     -0.55111597	     18.90807647	     21.06572870	      8.02213082	      5.32554792	     -1.96331639	     -4.52860409	    -12.37951182	      3.61168205	     -8.56882951	      0.26694964	      5.90846315
      1.04566667	     -4.49555652	      4.81188794	     -0.58574137	     -0.06442116	      0.99046307	      0.31656980	     -8.24359884	     -3.65748456	     -3.68661628	    -25.08225490	      7.46090461	     -0.60474309	     24.32624513	     21.08352362	      8.30641745	      5.58110486	     -2.73047227	     -4.92883296	    -13.00879285	      3.43733875	     -8.57884944	      0.06982369	      5.81321366
      1.04983333	     -4.44984177	      4.99966692	     -0.55390943	     -0.05859241	      0.99009100	      0.31610476	     -7.94442968	     -3.97826940	     -3.88597175	    -26.38020553	      6.84114994	     -0.39959516	     24.42456364	     21.13715567	      8.61231452	      5.72623378	     -3.56271006	     -5.25145811	    -13.50575678	      3.42338222	     -8.59097963	     -0.14659839	      5.68767972
      1.05400000	     -4.41369244	      5.17494600	     -0.52691888	     -0.05277983	      0.98973404	      0.31566677	     -7.60122235	     -4.28486441	     -4.05427254	    -27.72021274	      6.09783087	     -0.31259445	     24.59369773	     21.18988874	      8.90125444	      5.88407142	     -4.37926815	     -5.54238122	    -14.02618194	      3.40082836	     -8.58472213	     -0.36162762	      5.58232790
      1.05816667	     -4.36381689	      5.36517559	     -0.51381437	     -0.04699654	      0.98941962	      0.31522063	     -7.23665316	     -4.61884192	     -4.20133286	    -29.10326184	      5.29477907	     -0.19546967	     24.93813553	     21.22824054	      9.20646528	      6.04734460	     -5.20548701	     -5.80034770	    -14.60742271	      3.35604074	     -8.61181935	     -0.57824361	      5.47920843
      1.06233333	     -4.28263750	      5.56405601	     -0.51262900	     -0.04120501	      0.98918373	      0.31479672	     -6.87862435	     -4.97111483	     -4.34773798	    -30.49947238	      4.29677506	     -0.22362716	     29.66487008	     21.22116985	      9.51414366	      6.16619202	     -6.01625794	     -5.93474236	    -15.03328192	      2.75139140	     -8.67120801	     -0.80749422	      5.38277460
      1.06650000	     -4.22415292	      5.76753244	     -0.52523387	     -0.03546892	      0.98892554	      0.31440465	     -6.44484565	     -5.33312822	     -4.46180754	    -31.98035393	      3.33158501	     -0.19577002	     29.72739497	     21.25393256	      9.81909733	      6.22315187	     -6.86099004	     -5.97821744	    -15.38132017	      2.74076170	     -8.70788010	     -1.04328583	      5.30011979
      1.07066667	     -4.17947351	      5.96791571	     -0.55363406	     -0.02975345	      0.98867465	      0.31402801	     -5.95978896	     -5.69991523	     -4.54793790	    -33.49747519	      2.26887292	     -0.19461203	     29.84331781	     21.29342865	     10.11566052	      6.26428035	     -7.69425122	     -5.96181111	    -15.73429161	      2.72038808	     -8.72193487	     -1.27509456	      5.22550230
      1.07483333	     -4.11414109	      6.17622115	     -0.59738297	     -0.02407906	      0.98846846	      0.31367648	     -5.45988656	     -6.08247882	     -4.61217534	    -35.05170130	      1.14224979	     -0.20429835	     30.03534718	     21.30648060	     10.41589440	      6.28880036	     -8.52133192	     -5.88069309	    -16.06833371	      2.68493162	     -8.77062379	     -1.51819562	      5.15475907
      1.07900000	     -4.03688178	      6.38127710	     -0.66182375	     -0.01842889	      0.98830638	      0.31337958	     -4.94497006	     -6.46327272	     -4.63527021	    -36.60793385	     -0.12949839	     -0.31934783	     33.95823875	     21.30270654	     10.70288752	      6.27414128	     -9.34956156	     -5.64372807	    -16.28799465	      1.89090412	     -8.84756613	     -1.78624412	      5.16981886
